<svg width="33" height="33" viewBox="0 0 33 33" fill="none" xmlns="http://www.w3.org/2000/svg">
<path fill-rule="evenodd" clip-rule="evenodd" d="M33 16.5C33 25.6126 25.6126 33 16.5 33C7.38726 33 0 25.6126 0 16.5C0 7.38726 7.38726 0 16.5 0C25.6126 0 33 7.38726 33 16.5ZM11.4999 11.4999C11.9831 11.0167 12.7667 11.0167 13.2499 11.4999L16.5 14.7498L19.7499 11.4999C20.2331 11.0167 21.0167 11.0167 21.4999 11.4999C21.9833 11.9833 21.9833 12.7667 21.4999 13.2499L18.25 16.5L21.4999 19.7499C21.9833 20.2331 21.9833 21.0167 21.4999 21.4999C21.0167 21.9833 20.2331 21.9833 19.7499 21.4999L16.5 18.2502L13.2499 21.4999C12.7667 21.9833 11.9831 21.9833 11.4999 21.4999C11.0167 21.0167 11.0167 20.2331 11.4999 19.7501L14.7498 16.5L11.4999 13.2499C11.0166 12.7667 11.0166 11.9831 11.4999 11.4999Z" fill="white"/>
</svg>
