<svg width="34" height="33" viewBox="0 0 34 33" fill="none" xmlns="http://www.w3.org/2000/svg">
<path fill-rule="evenodd" clip-rule="evenodd" d="M16.9551 32.8496C9.21284 32.8496 5.34165 32.8496 2.93645 30.4444C0.53125 28.0392 0.53125 24.168 0.53125 16.4258C0.53125 8.68355 0.53125 4.81235 2.93645 2.40715C5.34165 0.00195312 9.21284 0.00195312 16.9551 0.00195312C24.6973 0.00195312 28.5685 0.00195312 30.9737 2.40715C33.3789 4.81235 33.3789 8.68355 33.3789 16.4258C33.3789 24.168 33.3789 28.0392 30.9737 30.4444C28.5685 32.8496 24.6973 32.8496 16.9551 32.8496ZM21.0189 10.5444C21.5459 10.9746 21.6243 11.7506 21.1941 12.2777L11.8091 23.7743C11.575 24.0609 11.2248 24.2271 10.8548 24.2271C10.4849 24.2271 10.1346 24.0609 9.90066 23.7743L6.1465 19.1757C5.71635 18.6486 5.79484 17.8725 6.32177 17.4425C6.84884 17.0124 7.62478 17.0907 8.05507 17.6176L10.8548 21.0475L19.2856 10.7198C19.7157 10.1927 20.4918 10.1141 21.0189 10.5444ZM27.5884 10.5445C28.1155 10.9746 28.1938 11.7506 27.7637 12.2777L18.3782 23.7743C18.1298 24.0787 17.751 24.2464 17.3587 24.2253C16.9663 24.2045 16.6075 23.9977 16.3925 23.6685L15.9236 22.9499C15.5517 22.3804 15.7121 21.617 16.2819 21.2453C16.6166 21.0267 17.0182 20.9921 17.3681 21.1161L25.8552 10.7196C26.2855 10.1927 27.0613 10.1142 27.5884 10.5445Z" fill="white"/>
</svg>
