<svg width="33" height="29" viewBox="0 0 33 29" fill="none" xmlns="http://www.w3.org/2000/svg">
<path d="M32.5285 23.7929L19.6459 1.77198C18.2361 -0.59066 14.7654 -0.59066 13.3556 1.77198L0.472981 23.7929C-0.15766 24.8553 -0.15766 26.1698 0.472981 27.2323C1.12005 28.3374 2.32235 29.0131 3.61814 28.9998H29.3833C30.6781 29.012 31.879 28.3365 32.5255 27.2323C33.1571 26.1704 33.1582 24.8559 32.5285 23.7929ZM15.3222 11.6C15.3222 10.707 16.3043 10.1489 17.09 10.5954C17.4546 10.8026 17.6792 11.1855 17.6792 11.6V17.3999C17.6792 18.2929 16.6971 18.851 15.9115 18.4045C15.5468 18.1973 15.3222 17.8143 15.3222 17.3999V11.6ZM16.5007 24.3598C15.1399 24.3599 14.2894 22.91 14.9698 21.7499C15.6501 20.5899 17.3512 20.5898 18.0316 21.7498C18.1868 22.0143 18.2685 22.3144 18.2685 22.6199C18.2685 23.5808 17.477 24.3598 16.5007 24.3598Z" fill="white"/>
</svg>
